<svg xmlns="http://www.w3.org/2000/svg" viewBox="0 0 200 200" fill="none">
  <rect width="200" height="200" rx="40" fill="#0B1420"/>
  <rect width="200" height="200" rx="40" fill="url(#alfred-bg)" opacity="0.3"/>
  <!-- Suit jacket -->
  <path d="M46 175C46 148 66 136 100 134C134 136 154 148 154 175" fill="#1C2333"/>
  <!-- Shirt -->
  <path d="M88 138L100 160L112 138" fill="white"/>
  <!-- Tie -->
  <path d="M97 145L100 165L103 145" fill="#5B8DEF"/>
  <!-- Lapels -->
  <path d="M88 138C82 140 72 148 68 158" stroke="#252D40" stroke-width="2" fill="none"/>
  <path d="M112 138C118 140 128 148 132 158" stroke="#252D40" stroke-width="2" fill="none"/>
  <!-- Face base - older, distinguished -->
  <ellipse cx="100" cy="108" rx="46" ry="50" fill="#E8C4A0"/>
  <!-- Silver hair - slicked back -->
  <path d="M56 88C56 60 74 42 100 42C126 42 144 60 144 88C144 72 130 58 100 56C70 58 56 72 56 88Z" fill="#B0B0B0"/>
  <path d="M56 88C56 82 62 72 100 70C138 72 144 82 144 88" fill="#A0A0A0"/>
  <!-- Temples greying -->
  <path d="M56 88C54 92 54 96 55 100" stroke="#C0C0C0" stroke-width="4" stroke-linecap="round" fill="none"/>
  <path d="M144 88C146 92 146 96 145 100" stroke="#C0C0C0" stroke-width="4" stroke-linecap="round" fill="none"/>
  <!-- Eyes - wise, slightly narrow -->
  <ellipse cx="82" cy="102" rx="7" ry="6" fill="white"/>
  <ellipse cx="118" cy="102" rx="7" ry="6" fill="white"/>
  <ellipse cx="83" cy="102" rx="4" ry="4" fill="#4A6FA5"/>
  <ellipse cx="119" cy="102" rx="4" ry="4" fill="#4A6FA5"/>
  <ellipse cx="84" cy="100.5" rx="1.2" ry="1.2" fill="white"/>
  <ellipse cx="120" cy="100.5" rx="1.2" ry="1.2" fill="white"/>
  <!-- Refined eyebrows -->
  <path d="M72 93C76 90 88 90 92 93" stroke="#909090" stroke-width="2.5" stroke-linecap="round" fill="none"/>
  <path d="M108 93C112 90 124 90 128 93" stroke="#909090" stroke-width="2.5" stroke-linecap="round" fill="none"/>
  <!-- Nose - refined -->
  <path d="M97 108C97 108 95 116 98 117C101 118 103 117 103 117C105 116 103 108 103 108" stroke="#CDA882" stroke-width="1.5" fill="none"/>
  <!-- Thin distinguished mustache -->
  <path d="M86 120C90 118 96 118 100 120C104 118 110 118 114 120" stroke="#909090" stroke-width="1.8" stroke-linecap="round" fill="none"/>
  <!-- Subtle smile -->
  <path d="M86 128C92 134 108 134 114 128" stroke="#C09070" stroke-width="2" stroke-linecap="round" fill="none"/>
  <!-- Crow's feet - wisdom lines -->
  <path d="M66 100L62 96" stroke="#CDA882" stroke-width="0.8" opacity="0.5" fill="none"/>
  <path d="M66 102L61 102" stroke="#CDA882" stroke-width="0.8" opacity="0.5" fill="none"/>
  <path d="M134 100L138 96" stroke="#CDA882" stroke-width="0.8" opacity="0.5" fill="none"/>
  <path d="M134 102L139 102" stroke="#CDA882" stroke-width="0.8" opacity="0.5" fill="none"/>
  <defs>
    <radialGradient id="alfred-bg" cx="0.3" cy="0.3">
      <stop offset="0%" stop-color="#5B8DEF"/>
      <stop offset="100%" stop-color="#0B1420"/>
    </radialGradient>
  </defs>
</svg>
