<svg xmlns="http://www.w3.org/2000/svg" viewBox="0 0 200 200" fill="none">
  <rect width="200" height="200" rx="40" fill="#0B1420"/>
  <rect width="200" height="200" rx="40" fill="url(#marco-bg)" opacity="0.3"/>
  <!-- Neck / Shoulders -->
  <path d="M50 175C50 152 70 140 100 138C130 140 150 152 150 175" fill="#FF8C42"/>
  <!-- Tank top lines -->
  <line x1="85" y1="145" x2="85" y2="175" stroke="#E07830" stroke-width="1.5" opacity="0.4"/>
  <line x1="115" y1="145" x2="115" y2="175" stroke="#E07830" stroke-width="1.5" opacity="0.4"/>
  <!-- Face base -->
  <ellipse cx="100" cy="105" rx="50" ry="54" fill="#D4956B"/>
  <!-- Short buzz cut hair -->
  <path d="M52 88C52 60 72 40 100 40C128 40 148 60 148 88C148 75 136 65 100 62C64 65 52 75 52 88Z" fill="#3D2B1F"/>
  <ellipse cx="100" cy="58" rx="40" ry="18" fill="#3D2B1F"/>
  <!-- Strong jawline -->
  <path d="M60 115C60 115 70 148 100 152C130 148 140 115 140 115" fill="#C98A60" opacity="0.3"/>
  <!-- Eyes - determined look -->
  <ellipse cx="80" cy="98" rx="9" ry="7" fill="white"/>
  <ellipse cx="120" cy="98" rx="9" ry="7" fill="white"/>
  <ellipse cx="82" cy="98" rx="5" ry="5" fill="#4A3728"/>
  <ellipse cx="122" cy="98" rx="5" ry="5" fill="#4A3728"/>
  <ellipse cx="83.5" cy="96.5" rx="1.5" ry="1.5" fill="white"/>
  <ellipse cx="123.5" cy="96.5" rx="1.5" ry="1.5" fill="white"/>
  <!-- Strong eyebrows -->
  <path d="M67 86C72 82 88 82 93 86" stroke="#3D2B1F" stroke-width="4" stroke-linecap="round" fill="none"/>
  <path d="M107 86C112 82 128 82 133 86" stroke="#3D2B1F" stroke-width="4" stroke-linecap="round" fill="none"/>
  <!-- Nose -->
  <path d="M96 105C96 105 93 114 97 116C101 118 103 118 107 116C107 114 104 105 104 105" stroke="#B87D55" stroke-width="1.5" fill="none"/>
  <!-- Confident smile -->
  <path d="M82 126C88 136 112 136 118 126" stroke="#8B5E3C" stroke-width="3" stroke-linecap="round" fill="none"/>
  <!-- Stubble dots -->
  <circle cx="75" cy="132" r="0.8" fill="#3D2B1F" opacity="0.3"/>
  <circle cx="80" cy="136" r="0.8" fill="#3D2B1F" opacity="0.3"/>
  <circle cx="85" cy="138" r="0.8" fill="#3D2B1F" opacity="0.3"/>
  <circle cx="115" cy="138" r="0.8" fill="#3D2B1F" opacity="0.3"/>
  <circle cx="120" cy="136" r="0.8" fill="#3D2B1F" opacity="0.3"/>
  <circle cx="125" cy="132" r="0.8" fill="#3D2B1F" opacity="0.3"/>
  <!-- Headband -->
  <path d="M52 78C52 78 72 72 100 72C128 72 148 78 148 78" stroke="#FF8C42" stroke-width="5" stroke-linecap="round" fill="none"/>
  <defs>
    <radialGradient id="marco-bg" cx="0.3" cy="0.3">
      <stop offset="0%" stop-color="#FF8C42"/>
      <stop offset="100%" stop-color="#0B1420"/>
    </radialGradient>
  </defs>
</svg>
